<svg xmlns="http://www.w3.org/2000/svg" viewBox="0 0 48 48">
  <defs>
    <linearGradient id="card" x1="0" y1="0" x2="0.2" y2="1">
      <stop offset="0" stop-color="#ffffff"/>
      <stop offset="0.6" stop-color="#e9f0fa"/>
      <stop offset="1" stop-color="#c6d6ec"/>
    </linearGradient>
    <linearGradient id="strip" x1="0" y1="0" x2="0" y2="1">
      <stop offset="0" stop-color="#7fb4f7"/>
      <stop offset="0.5" stop-color="#3c78dd"/>
      <stop offset="1" stop-color="#1c4fb4"/>
    </linearGradient>
    <radialGradient id="face" cx="0.35" cy="0.3" r="1">
      <stop offset="0" stop-color="#ffe0bd"/>
      <stop offset="1" stop-color="#e8b183"/>
    </radialGradient>
    <filter id="ds" x="-20%" y="-20%" width="140%" height="140%">
      <feDropShadow dx="1" dy="2" stdDeviation="1.3" flood-opacity="0.38"/>
    </filter>
  </defs>
  <g filter="url(#ds)" transform="rotate(-3 24 24)">
    <rect x="4" y="9" width="40" height="30" rx="4" fill="url(#card)" stroke="#7d95b5"/>
    <path d="M4 13a4 4 0 0 1 4-4h32a4 4 0 0 1 4 4v4.5H4Z" fill="url(#strip)" stroke="#1c4fb4"/>
    <path d="M6 10.5c4-1.2 12-1.5 18-1l-1 3.5c-6-.5-13-.2-16.5 1Z" fill="#ffffff" opacity="0.45"/>
    <circle cx="15" cy="27" r="5.2" fill="url(#face)" stroke="#c99b6b"/>
    <path d="M8 37.5c.9-4.8 3.6-7 7-7s6.1 2.2 7 7Z" fill="url(#strip)" stroke="#1c4fb4"/>
    <path d="M27 24h13M27 29h13M27 34h9" stroke="#7d95b5" stroke-width="2.4" stroke-linecap="round"/>
  </g>
</svg>
