<svg xmlns="http://www.w3.org/2000/svg" viewBox="0 0 48 48">
  <defs>
    <linearGradient id="env" x1="0" y1="0" x2="0.2" y2="1">
      <stop offset="0" stop-color="#ffffff"/>
      <stop offset="0.6" stop-color="#e9eff8"/>
      <stop offset="1" stop-color="#c3d2e6"/>
    </linearGradient>
    <radialGradient id="at" cx="0.32" cy="0.28" r="1">
      <stop offset="0" stop-color="#c8f2a2"/>
      <stop offset="0.45" stop-color="#5cb032"/>
      <stop offset="1" stop-color="#2c701a"/>
    </radialGradient>
    <filter id="ds" x="-20%" y="-20%" width="140%" height="140%">
      <feDropShadow dx="1" dy="2" stdDeviation="1.3" flood-opacity="0.38"/>
    </filter>
  </defs>
  <g filter="url(#ds)" transform="rotate(-3 24 24)">
    <rect x="4" y="11" width="40" height="27" rx="3.5" fill="url(#env)" stroke="#7d95b5"/>
    <path d="M5.5 13.5 24 27 42.5 13.5" fill="none" stroke="#8fa9c9" stroke-width="2.5" stroke-linejoin="round"/>
    <path d="M5.5 36 18 25.5M42.5 36 30 25.5" fill="none" stroke="#b6c6dd" stroke-width="2"/>
    <path d="M6 12.5c5-1 13-1.2 19-.7l-4 4.5-13.5-2Z" fill="#ffffff" opacity="0.5"/>
    <circle cx="37" cy="33" r="8.8" fill="url(#at)" stroke="#20520f"/>
    <ellipse cx="34.5" cy="29.8" rx="3.6" ry="2.2" fill="#ffffff" opacity="0.5"/>
    <path d="M37 28.6a4.4 4.4 0 1 0 4.4 4.4v-4h-2v4a2.4 2.4 0 1 1-2.4-2.4h1.8" fill="none" stroke="#ffffff" stroke-width="1.8"/>
  </g>
</svg>
