<svg xmlns="http://www.w3.org/2000/svg" viewBox="0 0 48 48">
  <defs>
    <linearGradient id="env" x1="0" y1="0" x2="0" y2="1">
      <stop offset="0" stop-color="#ffffff"/>
      <stop offset="1" stop-color="#e4ecf6"/>
    </linearGradient>
    <linearGradient id="flap" x1="0" y1="0" x2="0" y2="1">
      <stop offset="0" stop-color="#eef4fc"/>
      <stop offset="1" stop-color="#c7d8ee"/>
    </linearGradient>
    <linearGradient id="swoosh" x1="0" y1="0" x2="1" y2="1">
      <stop offset="0" stop-color="#8fd8ff"/>
      <stop offset="1" stop-color="#1566cf"/>
    </linearGradient>
    <filter id="dsC" x="-20%" y="-20%" width="140%" height="140%">
      <feDropShadow dx="0.6" dy="1.2" stdDeviation="1" flood-opacity="0.4"/>
    </filter>
  </defs>
  <g filter="url(#dsC)">
    <rect x="5" y="13" width="38" height="25" rx="2.5" fill="url(#env)" stroke="#8ea3bf"/>
    <path d="M5.6 14.4 24 27.4 42.4 14.4 42.4 13.2 5.6 13.2Z" fill="url(#flap)" stroke="#8ea3bf"/>
    <path d="M5.8 37.4 19 26.5M42.2 37.4 29 26.5" fill="none" stroke="#c2d0e2" stroke-width="1.6"/>
    <path d="M28 41c-6.6 0-11.5-4.8-11.5-11 0-4.2 2.2-7.6 5.6-9.2l1.9 3.5c-2.3 1-3.7 3-3.7 5.7 0 3.9 3.2 6.7 8 6.7z" fill="url(#swoosh)"/>
    <path d="M25.5 17.5l7 2.8-2.8 7z" fill="url(#swoosh)"/>
  </g>
</svg>
