<svg xmlns="http://www.w3.org/2000/svg" viewBox="0 0 48 48">
  <defs>
    <radialGradient id="bulb" cx="0.35" cy="0.28" r="0.95">
      <stop offset="0" stop-color="#fffbe0"/>
      <stop offset="0.45" stop-color="#ffd94e"/>
      <stop offset="1" stop-color="#e09a12"/>
    </radialGradient>
    <linearGradient id="base" x1="0" y1="0" x2="0" y2="1">
      <stop offset="0" stop-color="#c3cedc"/>
      <stop offset="1" stop-color="#6a7a8e"/>
    </linearGradient>
    <filter id="ds" x="-20%" y="-20%" width="140%" height="140%">
      <feDropShadow dx="1" dy="2" stdDeviation="1.4" flood-opacity="0.4"/>
    </filter>
  </defs>
  <g filter="url(#ds)">
    <path d="M24 2.5V6M8.5 8.5l2.6 2.6M39.5 8.5l-2.6 2.6M4.5 23.5h3.7M39.8 23.5h3.7" stroke="#f0b52c" stroke-width="2.8" stroke-linecap="round"/>
    <path d="M24 8.5a13.2 13.2 0 0 0-7.2 24c1.3 1 2.1 2.1 2.1 3.5h10.2c0-1.4.8-2.5 2.1-3.5a13.2 13.2 0 0 0-7.2-24Z" fill="url(#bulb)" stroke="#b57a0c"/>
    <ellipse cx="19" cy="15" rx="4.2" ry="3" fill="#ffffff" opacity="0.65"/>
    <path d="M20.3 24.5 24 28.2l3.7-3.7" fill="none" stroke="#c8871a" stroke-width="2" stroke-linecap="round"/>
    <path d="M24 28.2V36" stroke="#c8871a" stroke-width="2" stroke-linecap="round"/>
    <rect x="18.7" y="38" width="10.6" height="3.2" rx="1.6" fill="url(#base)" stroke="#4d5c70"/>
    <rect x="19.7" y="42.2" width="8.6" height="3.2" rx="1.6" fill="url(#base)" stroke="#4d5c70"/>
  </g>
</svg>
