<svg xmlns="http://www.w3.org/2000/svg" viewBox="0 0 48 48">
  <defs>
    <linearGradient id="case" x1="0" y1="0" x2="0.25" y2="1">
      <stop offset="0" stop-color="#e2a86a"/>
      <stop offset="0.5" stop-color="#b0743a"/>
      <stop offset="1" stop-color="#7c4a1c"/>
    </linearGradient>
    <linearGradient id="flap" x1="0" y1="0" x2="0" y2="1">
      <stop offset="0" stop-color="#f6cd96"/>
      <stop offset="1" stop-color="#bd7d3e"/>
    </linearGradient>
    <filter id="ds" x="-20%" y="-20%" width="140%" height="140%">
      <feDropShadow dx="1" dy="2.2" stdDeviation="1.4" flood-opacity="0.4"/>
    </filter>
  </defs>
  <g filter="url(#ds)" transform="rotate(-3 24 24)">
    <path d="M18 12V8.5a3 3 0 0 1 3-3h6a3 3 0 0 1 3 3V12" fill="none" stroke="#6b3d14" stroke-width="3.4"/>
    <rect x="5" y="12" width="38" height="27" rx="4.5" fill="url(#case)" stroke="#5f3510"/>
    <path d="M5 16.5A4.5 4.5 0 0 1 9.5 12h29a4.5 4.5 0 0 1 4.5 4.5V24c-12.5 5.5-25.5 5.5-38 0Z" fill="url(#flap)" stroke="#8a5a24"/>
    <path d="M7.5 14.5c3.5-1.7 9-2.1 13.5-1.7l-1.5 3.2c-4.2-.4-8.5.1-11 1.7Z" fill="#ffffff" opacity="0.5"/>
    <rect x="21" y="21.5" width="6.5" height="7.5" rx="1.5" fill="#ffd34e" stroke="#a3720f"/>
    <path d="M21.8 22.3h5v2.2h-5Z" fill="#ffffff" opacity="0.55"/>
  </g>
</svg>
