<svg xmlns="http://www.w3.org/2000/svg" viewBox="0 0 48 48">
  <defs>
    <linearGradient id="back" x1="0" y1="0" x2="0" y2="1">
      <stop offset="0" stop-color="#e8b95a"/>
      <stop offset="1" stop-color="#b07f24"/>
    </linearGradient>
    <linearGradient id="front" x1="0" y1="0" x2="0.2" y2="1">
      <stop offset="0" stop-color="#ffe391"/>
      <stop offset="0.55" stop-color="#f5c561"/>
      <stop offset="1" stop-color="#cf9a30"/>
    </linearGradient>
    <linearGradient id="wrench" x1="0" y1="0" x2="1" y2="1">
      <stop offset="0" stop-color="#c5d9f5"/>
      <stop offset="0.45" stop-color="#5d8fdd"/>
      <stop offset="1" stop-color="#1c48a8"/>
    </linearGradient>
    <filter id="ds" x="-20%" y="-20%" width="140%" height="140%">
      <feDropShadow dx="1" dy="2.2" stdDeviation="1.4" flood-opacity="0.4"/>
    </filter>
  </defs>
  <g filter="url(#ds)">
    <path d="M4 12a3 3 0 0 1 3-3h11l4 5h19a3 3 0 0 1 3 3v18a3 3 0 0 1-3 3H7a3 3 0 0 1-3-3Z" fill="url(#back)" stroke="#8a6015"/>
    <path d="M6.5 20 4 35a3 3 0 0 0 3 3h31a3 3 0 0 0 2.9-2.3L44.5 20a2.4 2.4 0 0 0-2.3-3H9a2.6 2.6 0 0 0-2.5 3Z" fill="url(#front)" stroke="#a87a1e"/>
    <path d="M8.5 19.5h33l-.6 3.2H7.9Z" fill="#ffffff" opacity="0.4"/>
    <path d="M40.8 42.4 30.6 32.2a7 7 0 0 1-8.9-8.9l4.6 4.6 4.2-4.2-4.6-4.6a7 7 0 0 1 8.9 8.9l10.2 10.2a2.97 2.97 0 1 1-4.2 4.2Z" fill="url(#wrench)" stroke="#123a80"/>
    <path d="M23.5 19.8a6.5 6.5 0 0 1 5-2.2l1.8 1.9-1.6 1.6Z" fill="#ffffff" opacity="0.45"/>
  </g>
</svg>
