<svg xmlns="http://www.w3.org/2000/svg" viewBox="0 0 48 48">
  <defs>
    <radialGradient id="gear" cx="0.32" cy="0.28" r="1">
      <stop offset="0" stop-color="#e4ebf4"/>
      <stop offset="0.5" stop-color="#98a8bc"/>
      <stop offset="1" stop-color="#57687e"/>
    </radialGradient>
    <radialGradient id="hub" cx="0.35" cy="0.3" r="1">
      <stop offset="0" stop-color="#cfe4fb"/>
      <stop offset="0.5" stop-color="#4585d6"/>
      <stop offset="1" stop-color="#153c8c"/>
    </radialGradient>
    <filter id="ds" x="-20%" y="-20%" width="140%" height="140%">
      <feDropShadow dx="1" dy="2" stdDeviation="1.4" flood-opacity="0.42"/>
    </filter>
  </defs>
  <g filter="url(#ds)">
    <path d="M21 5h6l1.2 5a14.5 14.5 0 0 1 4.4 1.8l4.6-2.4 4.2 4.2-2.4 4.6a14.5 14.5 0 0 1 1.8 4.4l5 1.2v6l-5 1.2a14.5 14.5 0 0 1-1.8 4.4l2.4 4.6-4.2 4.2-4.6-2.4a14.5 14.5 0 0 1-4.4 1.8L27 43h-6l-1.2-5a14.5 14.5 0 0 1-4.4-1.8l-4.6 2.4-4.2-4.2 2.4-4.6a14.5 14.5 0 0 1-1.8-4.4l-5-1.2v-6l5-1.2a14.5 14.5 0 0 1 1.8-4.4l-2.4-4.6 4.2-4.2 4.6 2.4a14.5 14.5 0 0 1 4.4-1.8Z" fill="url(#gear)" stroke="#3c4b5e"/>
    <ellipse cx="17" cy="12" rx="6" ry="3.2" fill="#ffffff" opacity="0.45" transform="rotate(-28 17 12)"/>
    <circle cx="24" cy="24" r="7.4" fill="#e8eef7" stroke="#3c4b5e"/>
    <circle cx="24" cy="24" r="3.6" fill="url(#hub)" stroke="#153c8c"/>
    <ellipse cx="22.6" cy="22.4" rx="1.4" ry="1" fill="#ffffff" opacity="0.7"/>
  </g>
</svg>
