<svg xmlns="http://www.w3.org/2000/svg" viewBox="0 0 24 24">
  <rect x="2" y="2" width="20" height="20" rx="6" fill="#1b1f24"/>
  <path d="M12 5.6a6.4 6.4 0 0 0-2 12.5c.3.1.4-.1.4-.3v-1.2c-1.8.4-2.2-.8-2.2-.8-.3-.8-.7-1-.7-1-.6-.4 0-.4 0-.4.6 0 1 .7 1 .7.6 1 1.5.7 1.9.6 0-.5.2-.8.4-1-1.4-.2-2.9-.7-2.9-3.2 0-.7.2-1.3.6-1.7 0-.2-.3-.9.1-1.8 0 0 .5-.2 1.7.6a6 6 0 0 1 3 0c1.2-.8 1.7-.6 1.7-.6.4.9.1 1.6.1 1.8.4.4.6 1 .6 1.7 0 2.5-1.5 3-2.9 3.2.2.2.5.6.5 1.3v1.9c0 .2.1.4.4.3A6.4 6.4 0 0 0 12 5.6z" fill="#ffffff"/>
</svg>
