<svg xmlns="http://www.w3.org/2000/svg" viewBox="0 0 48 48">
  <defs>
    <linearGradient id="chrome" x1="0" y1="0" x2="0.2" y2="1">
      <stop offset="0" stop-color="#8fc0f5"/>
      <stop offset="0.5" stop-color="#3c78dd"/>
      <stop offset="1" stop-color="#1c48a8"/>
    </linearGradient>
    <radialGradient id="screen" cx="0.3" cy="0.2" r="1.2">
      <stop offset="0" stop-color="#1e2a1e"/>
      <stop offset="1" stop-color="#050505"/>
    </radialGradient>
    <filter id="ds" x="-20%" y="-20%" width="140%" height="140%">
      <feDropShadow dx="1" dy="2" stdDeviation="1.3" flood-opacity="0.4"/>
    </filter>
  </defs>
  <g filter="url(#ds)" transform="rotate(-2 24 24)">
    <rect x="4" y="7" width="40" height="34" rx="3.5" fill="url(#chrome)" stroke="#12327e"/>
    <path d="M5.5 8.5c6-1.2 16-1.5 24-1l-.8 3.4c-8-.5-17.5-.2-22.5 1Z" fill="#ffffff" opacity="0.4"/>
    <rect x="7" y="14" width="34" height="24" rx="1.5" fill="url(#screen)" stroke="#0a1a3e"/>
    <circle cx="9.5" cy="10.5" r="1.6" fill="#ffffff" opacity="0.85"/>
    <path d="M11 20l5 4-5 4" fill="none" stroke="#3ddc55" stroke-width="2.4" stroke-linecap="round" stroke-linejoin="round"/>
    <path d="M19 29h8" stroke="#3ddc55" stroke-width="2.4" stroke-linecap="round"/>
    <path d="M11 34h12" stroke="#2a8f38" stroke-width="2" stroke-linecap="round"/>
    <path d="M8 15.5 40 15a40 40 0 0 0-32 3.5Z" fill="#ffffff" opacity="0.08"/>
  </g>
</svg>
