<svg xmlns="http://www.w3.org/2000/svg" viewBox="0 0 48 48">
  <defs>
    <linearGradient id="bubble" x1="0" y1="0" x2="0.25" y2="1">
      <stop offset="0" stop-color="#a9d0f7"/>
      <stop offset="0.5" stop-color="#4585d6"/>
      <stop offset="1" stop-color="#1c48a8"/>
    </linearGradient>
    <radialGradient id="star" cx="0.35" cy="0.3" r="1">
      <stop offset="0" stop-color="#fff3c4"/>
      <stop offset="1" stop-color="#f0b52c"/>
    </radialGradient>
    <filter id="ds" x="-20%" y="-20%" width="140%" height="140%">
      <feDropShadow dx="1" dy="2" stdDeviation="1.3" flood-opacity="0.4"/>
    </filter>
  </defs>
  <g filter="url(#ds)" transform="rotate(-2 24 24)">
    <path d="M6 10a5 5 0 0 1 5-5h26a5 5 0 0 1 5 5v18a5 5 0 0 1-5 5H22l-9 8v-8h-2a5 5 0 0 1-5-5Z" fill="url(#bubble)" stroke="#12327e"/>
    <path d="M8 8.5c5-1.4 14-1.7 21-1.1l-1 3.6c-7-.6-15.5-.3-19.5 1Z" fill="#ffffff" opacity="0.45"/>
    <path d="M15 22c2.5 3 5.5 3 8 0" fill="none" stroke="#ffffff" stroke-width="2.4" stroke-linecap="round"/>
    <circle cx="16" cy="15.5" r="2" fill="#ffffff"/>
    <circle cx="24" cy="15.5" r="2" fill="#ffffff"/>
    <path d="M31 14l2.2 4.4 4.8.7-3.5 3.4.8 4.8-4.3-2.3-4.3 2.3.8-4.8-3.5-3.4 4.8-.7Z" fill="url(#star)" stroke="#a3720f"/>
  </g>
</svg>
