<svg xmlns="http://www.w3.org/2000/svg" viewBox="0 0 64 64">
  <defs>
    <linearGradient id="bg" x1="0" y1="0" x2="0" y2="1">
      <stop offset="0" stop-color="#ffd88a"/>
      <stop offset="1" stop-color="#f0a63c"/>
    </linearGradient>
    <linearGradient id="shirt" x1="0" y1="0" x2="0" y2="1">
      <stop offset="0" stop-color="#4a8fe0"/>
      <stop offset="1" stop-color="#2d62b8"/>
    </linearGradient>
  </defs>
  <rect width="64" height="64" rx="8" fill="url(#bg)"/>
  <path d="M12 64c1.5-13 9.5-19 20-19s18.5 6 20 19Z" fill="url(#shirt)"/>
  <path d="M26 46h12v6c0 3-2.7 5-6 5s-6-2-6-5Z" fill="#e8b183"/>
  <circle cx="32" cy="28" r="13.5" fill="#f2c9a0"/>
  <path d="M18.5 26c0-9 6-15 13.5-15s13.5 6 13.5 15c0 1.4-.1 2.6-.4 3.6-1-4.6-2.6-6.8-4.6-8.6-3.4 2.4-11 3.4-17 2-1.9 1.6-3.6 3.8-4.2 6.6-.5-1.1-.8-2.2-.8-3.6Z" fill="#5a3d28"/>
  <circle cx="26.5" cy="28.5" r="1.6" fill="#3a2a1c"/>
  <circle cx="37.5" cy="28.5" r="1.6" fill="#3a2a1c"/>
  <path d="M27 36.5c1.6 1.6 8.4 1.6 10 0" fill="none" stroke="#b5764a" stroke-width="1.6" stroke-linecap="round"/>
  <path d="M30.6 31.8c.5.8 2.3.8 2.8 0" fill="none" stroke="#d8a273" stroke-width="1.4" stroke-linecap="round"/>
</svg>
